<svg width="20" height="26" viewBox="0 0 20 26" fill="none" xmlns="http://www.w3.org/2000/svg">
<path d="M19.4669 5.68643C19.4667 5.68049 19.4665 5.67465 19.4661 5.66881C19.4646 5.64642 19.4621 5.62418 19.4579 5.60234C19.4578 5.60204 19.4578 5.60168 19.4577 5.60138C19.4533 5.57918 19.4469 5.55745 19.4397 5.53607C19.4378 5.53048 19.4359 5.52495 19.4337 5.51941C19.4262 5.49946 19.4179 5.47986 19.408 5.46091C19.4073 5.45954 19.4067 5.45807 19.406 5.45675C19.3954 5.43674 19.383 5.4178 19.3698 5.39921C19.3664 5.39434 19.3628 5.38962 19.3591 5.38484C19.3451 5.36641 19.3302 5.34848 19.3136 5.33193L14.136 0.154273C14.1194 0.137668 14.1014 0.122738 14.083 0.10857C14.0783 0.105016 14.0737 0.101613 14.0689 0.0981602C14.0503 0.0848555 14.0312 0.0724141 14.0111 0.06175C14.01 0.0612422 14.009 0.0608359 14.008 0.0602773C13.9887 0.0501211 13.9687 0.0416406 13.9482 0.0340234C13.9429 0.032043 13.9376 0.0300625 13.9322 0.0282852C13.8894 0.0137617 13.8446 0.004875 13.7989 0.00177734C13.7932 0.00137109 13.7875 0.00111719 13.7818 0.000914062C13.7756 0.000660156 13.7696 0 13.7636 0H1.0598C0.76898 0 0.533203 0.235777 0.533203 0.526602V25.4734C0.533203 25.7642 0.76898 26 1.0598 26H18.9412C19.232 26 19.4678 25.7642 19.4678 25.4734V5.70421C19.4678 5.69822 19.4671 5.69237 19.4669 5.68643ZM14.2902 1.79781L17.67 5.17761H14.2902V1.79781ZM5.27246 1.05315H8.8269V16.6409L7.57626 15.7833V8.75443C7.57626 8.46361 7.34048 8.22783 7.04966 8.22783C6.75883 8.22783 6.52305 8.46361 6.52305 8.75443V15.7834L5.27241 16.641L5.27246 1.05315ZM18.4147 24.9468H1.58636V1.05315H4.21926V17.6405C4.21926 17.8359 4.32753 18.0153 4.50039 18.1064C4.6733 18.1976 4.88241 18.1853 5.04364 18.0748L7.04966 16.6993L9.05567 18.0748C9.14499 18.1361 9.24904 18.167 9.3535 18.167C9.43749 18.167 9.52179 18.147 9.59888 18.1064C9.77179 18.0153 9.88 17.8359 9.88 17.6405V1.05315H13.2369V5.70421C13.2369 5.99503 13.4727 6.23081 13.7635 6.23081H18.4146V24.9468H18.4147Z" fill="white"/>
<path d="M12.1836 12.8352C12.1836 13.126 12.4194 13.3618 12.7102 13.3618H15.4747C15.7656 13.3618 16.0013 13.126 16.0013 12.8352C16.0013 12.5444 15.7656 12.3086 15.4747 12.3086H12.7102C12.4194 12.3086 12.1836 12.5444 12.1836 12.8352Z" fill="white"/>
<path d="M15.4747 14.415H12.7102C12.4194 14.415 12.1836 14.6508 12.1836 14.9416C12.1836 15.2325 12.4194 15.4682 12.7102 15.4682H15.4747C15.7656 15.4682 16.0013 15.2325 16.0013 14.9416C16.0013 14.6508 15.7656 14.415 15.4747 14.415Z" fill="white"/>
<path d="M15.4747 16.5215H12.7102C12.4194 16.5215 12.1836 16.7573 12.1836 17.0481C12.1836 17.3389 12.4194 17.5747 12.7102 17.5747H15.4747C15.7656 17.5747 16.0013 17.3389 16.0013 17.0481C16.0013 16.7573 15.7656 16.5215 15.4747 16.5215Z" fill="white"/>
<path d="M15.4747 18.6279H12.7102C12.4194 18.6279 12.1836 18.8637 12.1836 19.1545C12.1836 19.4454 12.4194 19.6811 12.7102 19.6811H15.4747C15.7656 19.6811 16.0013 19.4454 16.0013 19.1545C16.0013 18.8637 15.7656 18.6279 15.4747 18.6279Z" fill="white"/>
<path d="M15.4752 20.7344H4.61449C4.32367 20.7344 4.08789 20.9702 4.08789 21.261C4.08789 21.5518 4.32367 21.7876 4.61449 21.7876H15.4752C15.7661 21.7876 16.0018 21.5518 16.0018 21.261C16.0018 20.9702 15.7661 20.7344 15.4752 20.7344Z" fill="white"/>
</svg>
