<svg width="30" height="30" viewBox="0 0 30 30" fill="none" xmlns="http://www.w3.org/2000/svg">
<circle cx="15" cy="15" r="15" fill="#2FB15C"/>
<path d="M16.3068 11.3773H16.2914C16.1489 11.3773 16.041 11.4937 16.041 11.6372C16.041 11.7807 16.1643 11.8971 16.3068 11.8971C16.4494 11.8971 16.5649 11.7807 16.5649 11.6372C16.5649 11.4937 16.4494 11.3773 16.3068 11.3773Z" fill="white"/>
<path d="M18.404 11.3773H18.3896C18.2471 11.3773 18.1387 11.4937 18.1387 11.6372C18.1387 11.7807 18.2614 11.8971 18.404 11.8971C18.5465 11.8971 18.6621 11.7807 18.6621 11.6372C18.6621 11.4937 18.5465 11.3773 18.404 11.3773Z" fill="white"/>
<path d="M20.4982 11.3773H20.4828C20.3403 11.3773 20.2324 11.4937 20.2324 11.6372C20.2324 11.7807 20.3557 11.8971 20.4982 11.8971C20.6408 11.8971 20.7563 11.7807 20.7563 11.6372C20.7563 11.4937 20.6408 11.3773 20.4982 11.3773Z" fill="white"/>
<path d="M18.4079 18.6192C17.0789 17.8646 16.6809 17.9262 15.6675 18.5031C15.1475 18.8511 14.5213 18.6389 13.4331 17.7466C13.2195 17.5713 13.0049 17.3759 12.7959 17.1665C12.5871 16.9553 12.3931 16.7392 12.2192 16.524C11.3988 15.5104 11.1755 14.5855 11.4419 14.3067C12.2271 13.4566 12.0489 12.7585 11.3558 11.5213C10.9384 10.7263 10.48 9.93496 9.86992 9.75338C9.42754 9.62255 8.77066 9.96529 8.57506 10.096C8.07194 10.4334 7.59415 11.0303 7.32808 11.6537C6.8387 12.8008 6.9685 14.1832 7.25323 15.0946C7.72093 16.5887 8.8435 18.3189 10.2563 19.7229C11.6513 21.1461 13.3696 22.2761 14.8529 22.7458C15.3215 22.8947 15.9155 23.0016 16.5379 23.0016C17.1171 23.0016 17.7209 22.909 18.2705 22.6713C18.8897 22.4029 19.4821 21.9218 19.8163 21.4159C19.9464 21.2196 20.2881 20.5583 20.1566 20.111C19.9773 19.4978 19.1913 19.0361 18.4079 18.6192ZM18.1605 19.0754C18.6386 19.3299 19.5285 19.8036 19.6614 20.2583C19.6887 20.3509 19.6555 20.5197 19.5944 20.6952L16.1023 18.8528C16.7591 18.4866 17.025 18.4306 18.1605 19.0754ZM9.72388 10.2519C10.1762 10.3866 10.6467 11.2827 10.9028 11.7704C11.5794 12.9781 11.5773 13.3592 11.1422 13.8646L9.25842 10.331C9.40194 10.2776 9.54362 10.2423 9.64534 10.2423C9.67536 10.2423 9.70181 10.2454 9.72388 10.2519ZM18.0666 22.1938C17.0554 22.6313 15.7872 22.4977 15.0079 22.25C13.6007 21.8044 11.9613 20.7227 10.6226 19.3567C10.6217 19.3558 10.621 19.355 10.6201 19.3541C9.26397 18.0067 8.18931 16.3558 7.74566 14.9385C7.50053 14.1538 7.36832 12.8764 7.8025 11.8588C8.02037 11.3482 8.39934 10.8636 8.80138 10.5728L10.8464 14.4093C10.7338 15.0261 11.0836 15.9436 11.8189 16.8523C12.0035 17.0807 12.2092 17.3099 12.4309 17.534C12.6527 17.7565 12.8802 17.9635 13.1071 18.1496C13.9041 18.8033 14.741 19.3519 15.5248 19.135L19.3631 21.16C19.0773 21.5751 18.5852 21.969 18.0666 22.1938Z" fill="white"/>
<path d="M22.474 9.48249C21.2942 7.21834 18.5043 6.34261 16.2548 7.52961C14.0061 8.71791 13.136 11.5272 14.3153 13.7919C14.4007 13.956 14.4983 14.118 14.6063 14.2756L13.909 15.4789C13.8604 15.5628 13.8623 15.6671 13.9141 15.7491C13.9656 15.8312 14.0585 15.8767 14.1547 15.8687L16.155 15.6907C16.8544 16.0823 17.6237 16.2787 18.3941 16.2787C19.1265 16.2787 19.8599 16.1011 20.5347 15.7446C22.7835 14.5565 23.6535 11.7473 22.474 9.48249ZM20.2949 15.2844C19.0437 15.9453 17.566 15.9137 16.3417 15.1998C16.3024 15.1769 16.2577 15.1648 16.2124 15.1648C16.2049 15.1648 16.1973 15.1652 16.1897 15.1658L14.6065 15.3067L15.1365 14.3921C15.1885 14.3022 15.1823 14.1896 15.1206 14.1061C14.9881 13.9268 14.8711 13.7399 14.7725 13.5505C13.7253 11.5397 14.4977 9.0452 16.4946 7.98988C18.4919 6.93521 20.969 7.71362 22.0169 9.72398C23.0642 11.735 22.2916 14.2293 20.2949 15.2844Z" fill="white"/>
</svg>
