<svg width="30" height="30" viewBox="0 0 30 30" fill="none" xmlns="http://www.w3.org/2000/svg">
<circle cx="15" cy="15" r="15" fill="#DF0F0F"/>
<path d="M13.6405 7.00005C13.5467 6.99878 13.4539 7.02147 13.3702 7.06619C13.2864 7.11091 13.2141 7.17633 13.1594 7.25689C13.1048 7.33746 13.0693 7.43078 13.0561 7.52891C13.0429 7.62705 13.0524 7.72711 13.0837 7.82056H11.3646C10.6509 7.82056 9.98265 8.19777 9.58705 8.82537L8.66756 10.2821H8.59094C8.51373 10.2809 8.43708 10.296 8.36543 10.3264C8.29379 10.3568 8.22858 10.402 8.17359 10.4592C8.11861 10.5165 8.07495 10.5847 8.04515 10.6599C8.01535 10.7352 8 10.8159 8 10.8975C8 10.979 8.01535 11.0598 8.04515 11.135C8.07495 11.2102 8.11861 11.2785 8.17359 11.3357C8.22858 11.393 8.29379 11.4381 8.36543 11.4685C8.43708 11.4989 8.51373 11.514 8.59094 11.5129H8.88757C8.93755 11.5208 8.9883 11.5219 9.03854 11.5161L9.99899 20.984C10.1149 22.1255 11.0364 23 12.1232 23H17.876C18.9628 23 19.8844 22.1255 20.0003 20.984L20.9615 11.5161C21.0107 11.5216 21.0604 11.5206 21.1094 11.5129H21.4091C21.4863 11.514 21.5629 11.4989 21.6346 11.4685C21.7062 11.4381 21.7714 11.393 21.8264 11.3357C21.8814 11.2785 21.9251 11.2102 21.9549 11.135C21.9847 11.0598 22 10.979 22 10.8975C22 10.8159 21.9847 10.7352 21.9549 10.6599C21.9251 10.5847 21.8814 10.5165 21.8264 10.4592C21.7714 10.402 21.7062 10.3568 21.6346 10.3264C21.5629 10.296 21.4863 10.2809 21.4091 10.2821H21.3324L20.413 8.82537C20.017 8.19811 19.3488 7.82056 18.6354 7.82056H16.9163C16.9476 7.72711 16.9571 7.62705 16.9439 7.52891C16.9307 7.43078 16.8952 7.33746 16.8406 7.25689C16.7859 7.17633 16.7136 7.11091 16.6298 7.06619C16.5461 7.02147 16.4533 6.99878 16.3595 7.00005H13.6405ZM11.3646 9.05133H18.6354C18.9607 9.05133 19.2629 9.22208 19.4434 9.50806L19.932 10.2821H10.068L10.5566 9.50806C10.5569 9.50779 10.5571 9.50752 10.5574 9.50725C10.7374 9.22164 11.0388 9.05133 11.3646 9.05133ZM10.2107 11.5129H19.7893L18.8418 20.8526C18.7883 21.3792 18.3771 21.7692 17.876 21.7692H12.1232C11.6221 21.7692 11.2117 21.3792 11.1582 20.8526L10.2107 11.5129Z" fill="white"/>
<rect x="13" y="13" width="1" height="7" rx="0.5" fill="white"/>
<rect x="16" y="13" width="1" height="7" rx="0.5" fill="white"/>
</svg>
