<svg width="30" height="30" viewBox="0 0 30 30" fill="none" xmlns="http://www.w3.org/2000/svg">
<circle cx="15" cy="15" r="15" fill="#264C86"/>
<path fill-rule="evenodd" clip-rule="evenodd" d="M18.1382 7.5C18.3869 7.49995 18.6255 7.59878 18.8014 7.77473L22.2256 11.2004C22.5915 11.5665 22.5915 12.1599 22.2256 12.5259L12.5305 22.2253C12.3547 22.4012 12.1161 22.5 11.8674 22.5H8.4375C7.91973 22.5 7.5 22.0803 7.5 21.5625V18.15C7.5 17.9015 7.59862 17.6632 7.77419 17.4874L17.475 7.77498C17.6508 7.59897 17.8894 7.50005 18.1382 7.5ZM18.1386 9.76387L9.375 18.5379V20.625H11.479L20.237 11.8632L18.1386 9.76387Z" fill="white"/>
</svg>
