<svg width="124" height="124" viewBox="0 0 124 124" fill="none" xmlns="http://www.w3.org/2000/svg">
<path d="M79.9219 12.4969L61.8062 21.7L42.7219 11.9156L3.875 35.0688L21.8938 45.4344V88.35L61.8062 67.1344L101.138 88.35V45.4344L120.125 34.4875L79.9219 12.4969Z" fill="white"/>
<path d="M21.8938 89.3187C21.7 89.3187 21.5063 89.3187 21.4094 89.2219C21.1187 89.0281 20.925 88.7375 20.925 88.35V45.9188L3.39062 35.8437C3.1 35.7469 2.90625 35.3594 2.90625 35.0687C2.90625 34.7781 3.1 34.3906 3.39062 34.1969L42.2375 11.0438C42.5281 10.85 42.9156 10.85 43.2062 11.0438L61.9031 20.6344L79.4375 11.625C79.7281 11.4313 80.0188 11.5281 80.3094 11.625L120.513 33.6156C120.803 33.8094 120.997 34.1 120.997 34.4875C120.997 34.875 120.803 35.1656 120.513 35.3594L102.009 46.0156V88.4469C102.009 88.8344 101.816 89.125 101.525 89.3187C101.234 89.5125 100.847 89.5125 100.556 89.3187L61.8062 68.2L22.3781 89.2219C22.1844 89.3187 22.0875 89.3187 21.8938 89.3187ZM5.8125 35.0687L22.3781 44.5625C22.6688 44.7562 22.8625 45.0469 22.8625 45.4344V86.8L61.3219 66.2625C61.6125 66.0687 62 66.0687 62.1937 66.2625L100.072 86.8V45.4344C100.072 45.0469 100.266 44.7562 100.556 44.5625L118.188 34.4875L79.825 13.6594L62.9688 22.1844C62.9688 22.2812 62.8719 22.2812 62.8719 22.3781C62.5813 22.8625 62 22.9594 61.5156 22.6687L61.3219 22.475H61.225L42.7219 12.9813L5.8125 35.0687Z" fill="#7C7C7C"/>
<path d="M61.8066 21.7L101.138 45.4343V88.3499L61.8066 67.1343V21.7Z" fill="white"/>
<path d="M61.807 21.7L21.8945 45.4343V88.3499L61.807 67.1343V21.7Z" fill="white"/>
<path d="M101.138 89.3188C100.944 89.3188 100.847 89.3188 100.654 89.2219L61.3223 67.9094C61.0316 67.7157 60.8379 67.425 60.8379 67.0375V21.7C60.8379 21.3125 61.0316 21.0219 61.3223 20.8282C61.6129 20.6344 62.0004 20.6344 62.291 20.8282L101.622 44.5625C101.913 44.7563 102.107 45.0469 102.107 45.4344V88.4469C102.107 88.8344 101.913 89.125 101.622 89.3188H101.138ZM62.7754 66.5532L100.169 86.8V45.9188L62.7754 23.4438V66.5532Z" fill="#7C7C7C"/>
<path d="M21.8945 89.3188C21.7008 89.3188 21.507 89.3188 21.4102 89.2219C21.1195 89.0282 20.9258 88.7375 20.9258 88.35V45.4344C20.9258 45.0469 21.1195 44.7563 21.4102 44.5625L61.3227 20.8282C61.6133 20.6344 62.0008 20.6344 62.2914 20.8282C62.582 21.0219 62.7758 21.3125 62.7758 21.7V67.1344C62.7758 67.5219 62.582 67.8125 62.2914 68.0063L22.3789 89.3188H21.8945ZM22.8633 45.9188V86.8L60.8383 66.5532V23.4438L22.8633 45.9188Z" fill="#7C7C7C"/>
<path d="M61.807 66.65L45.0477 60.0625L21.8945 45.3375V88.35L61.807 112.084L101.138 88.35V45.3375L83.4102 58.5125L61.807 66.65Z" fill="white"/>
<path d="M61.807 113.053C61.6133 113.053 61.4195 113.053 61.3227 112.956L21.4102 89.2219C21.1195 89.0281 20.9258 88.7375 20.9258 88.35V45.3375C20.9258 44.95 21.1195 44.6594 21.4102 44.4656C21.7008 44.2719 22.0883 44.2719 22.3789 44.4656L45.532 59.1906L61.9039 65.6813L83.0227 57.6406L100.557 44.5625C100.848 44.3687 101.235 44.2719 101.526 44.4656C101.816 44.6594 102.01 44.95 102.01 45.3375V88.35C102.01 88.7375 101.816 89.0281 101.526 89.2219L62.1945 112.956C62.1945 112.956 62.0008 113.053 61.807 113.053ZM22.8633 87.8656L61.807 111.019L100.17 87.8656V47.275L83.9914 59.2875C83.8945 59.3844 83.7977 59.3844 83.7977 59.3844L62.1945 67.6188C62.0008 67.7156 61.7102 67.7156 61.5164 67.6188L44.757 61.0312C44.6602 61.0312 44.6602 60.9344 44.5633 60.9344L22.8633 47.1781V87.8656Z" fill="#7C7C7C"/>
<path d="M61.8066 112.084L101.138 88.35V45.3375L80.6004 59.9657L61.8066 66.65V112.084Z" fill="white"/>
<path d="M61.8066 113.053C61.6129 113.053 61.516 113.053 61.3223 112.956C61.0316 112.762 60.8379 112.472 60.8379 112.084V66.65C60.8379 66.2625 61.1285 65.875 61.516 65.7781L80.2129 59.0937L100.557 44.5625C100.847 44.3687 101.235 44.3687 101.525 44.4656C101.816 44.6594 102.01 44.95 102.01 45.3375V88.35C102.01 88.7375 101.816 89.0281 101.525 89.2219L62.1941 112.956C62.1941 112.956 62.0004 113.053 61.8066 113.053ZM62.7754 67.3281V110.341L100.169 87.8656V47.275L81.1816 60.7406C81.0848 60.8375 80.9879 60.8375 80.9879 60.8375L62.7754 67.3281Z" fill="#7C7C7C"/>
<path d="M3.875 55.7031L21.8938 45.3375L61.8062 66.65L42.625 77.5969L3.875 55.7031Z" fill="white"/>
<path d="M61.8066 66.65L79.8254 77.0156L120.125 56.2843L101.138 45.4343L61.8066 66.65Z" fill="white"/>
<path d="M42.625 78.5657C42.4313 78.5657 42.3344 78.5657 42.1406 78.4688L3.39062 56.5751C3.1 56.3813 2.90625 56.0907 2.90625 55.7032C2.90625 55.3157 3.1 55.025 3.39062 54.8313L21.4094 44.5625C21.7 44.3688 22.0875 44.3688 22.3781 44.5625L62.2906 65.875C62.5813 66.0688 62.775 66.3594 62.775 66.7469C62.775 67.1344 62.5813 67.4251 62.2906 67.6188L43.1094 78.4688C43.0125 78.5657 42.8187 78.5657 42.625 78.5657ZM5.8125 55.7032L42.625 76.5313L59.7719 66.7469L21.8938 46.5L5.8125 55.7032Z" fill="#7C7C7C"/>
<path d="M79.8254 77.9844C79.6316 77.9844 79.5348 77.9844 79.341 77.8875L61.3223 67.5219C61.0316 67.3281 60.8379 67.0375 60.8379 66.65C60.8379 66.2625 61.0316 65.9719 61.3223 65.7781L100.654 44.4656C100.944 44.2719 101.332 44.2719 101.622 44.4656L120.61 55.4125C120.9 55.6062 121.094 55.8969 121.094 56.2844C121.094 56.6719 120.9 56.9625 120.61 57.1562L80.3098 77.8875C80.116 77.9844 80.0191 77.9844 79.8254 77.9844ZM63.841 66.65L79.9223 75.8531L118.188 56.1875L101.041 46.5L63.841 66.65Z" fill="#7C7C7C"/>
</svg>
