<svg width="34" height="45" viewBox="0 0 34 45" fill="none" xmlns="http://www.w3.org/2000/svg">
<path d="M12 0L16.4437 5.88383L23.4127 8.2918L19.19 14.3362L19.0534 21.7082L12 19.56L4.94658 21.7082L4.81001 14.3362L0.587322 8.2918L7.55634 5.88383L12 0Z" fill="white"/>
<path d="M27.5 27L29.907 30.1871L33.6819 31.4914L31.3946 34.7654L31.3206 38.7586L27.5 37.595L23.6794 38.7586L23.6054 34.7654L21.3181 31.4914L25.093 30.1871L27.5 27Z" fill="white"/>
<path d="M16.5 40L17.4258 41.2258L18.8776 41.7275L17.9979 42.9867L17.9695 44.5225L16.5 44.075L15.0305 44.5225L15.0021 42.9867L14.1224 41.7275L15.5742 41.2258L16.5 40Z" fill="white"/>
</svg>
