<svg width="14" height="14" viewBox="0 0 14 14" fill="currentColor" xmlns="http://www.w3.org/2000/svg">
<path fill-rule="evenodd" clip-rule="evenodd" d="M6.60247 0.139447C6.83488 -0.0464824 7.16512 -0.0464824 7.39753 0.139447L13.7612 5.23036C13.9121 5.35112 14 5.53396 14 5.72727V13.3636C14 13.7151 13.7151 14 13.3636 14H9.54545C9.194 14 8.90909 13.7151 8.90909 13.3636V8.27273H5.09091V13.3636C5.09091 13.7151 4.806 14 4.45455 14H0.636364C0.28491 14 0 13.7151 0 13.3636V5.72727C0 5.53396 0.0878753 5.35112 0.23883 5.23036L6.60247 0.139447ZM1.27273 6.03312V12.7273H3.81818V7.63636C3.81818 7.28491 4.10309 7 4.45455 7H9.54545C9.89691 7 10.1818 7.28491 10.1818 7.63636V12.7273H12.7273V6.03312L7 1.45131L1.27273 6.03312Z" fill="currentColor"/>
<path fill-rule="evenodd" clip-rule="evenodd" d="M7 9.54545C7.35145 9.54545 7.63636 9.83036 7.63636 10.1818V13.3636C7.63636 13.7151 7.35145 14 7 14C6.64855 14 6.36364 13.7151 6.36364 13.3636V10.1818C6.36364 9.83036 6.64855 9.54545 7 9.54545Z" fill="currentColor"/>
</svg>
