<svg width="15" height="22" viewBox="0 0 15 22" fill="none" xmlns="http://www.w3.org/2000/svg">
<path d="M7.5 0C3.35781 0 0 3.69359 0 8.25C0 10.2018 0.781875 11.9182 1.64719 13.4062L6.99 21.7099C7.10719 21.8921 7.2975 22 7.5 22C7.7025 22 7.89281 21.8921 8.01 21.7099L13.3528 13.4062C14.1797 12.1818 15 10.2018 15 8.25C15 3.69359 11.6422 0 7.5 0ZM12.5272 13.4062H12.5241L7.5 20.9688L2.47594 13.4062H2.47281C1.70906 12.1925 0.625 10.2434 0.625 8.25C0.625 4.07344 3.70312 0.6875 7.5 0.6875C11.2969 0.6875 14.375 4.07344 14.375 8.25C14.375 10.2434 13.2128 12.2997 12.5272 13.4062Z" fill="#264C86"/>
<path d="M7.5 4.8125C5.77406 4.8125 4.375 6.35181 4.375 8.25C4.375 10.1482 5.77406 11.6875 7.5 11.6875C9.22594 11.6875 10.625 10.1482 10.625 8.25C10.625 6.35181 9.22594 4.8125 7.5 4.8125ZM7.5 11C6.11937 11 5 9.76869 5 8.25C5 6.73131 6.11937 5.5 7.5 5.5C8.88063 5.5 10 6.73131 10 8.25C10 9.76869 8.88063 11 7.5 11Z" fill="#264C86"/>
<path d="M7.5 3.4375C5.08375 3.4375 3.125 5.59212 3.125 8.25C3.125 10.9079 5.08375 13.0625 7.5 13.0625C9.91625 13.0625 11.875 10.9079 11.875 8.25C11.875 5.59212 9.91625 3.4375 7.5 3.4375ZM7.5 12.375C5.42906 12.375 3.75 10.528 3.75 8.25C3.75 5.97197 5.42906 4.125 7.5 4.125C9.57094 4.125 11.25 5.97197 11.25 8.25C11.25 10.528 9.57094 12.375 7.5 12.375Z" fill="#264C86"/>
</svg>
