<svg width="111" height="83" viewBox="0 0 111 83" fill="none" xmlns="http://www.w3.org/2000/svg">
<path d="M7.02827 66.6275C6.40317 67.7291 5.78736 69.1309 5.18083 70.8329C4.75378 72.0398 4.54026 73.0486 4.54026 73.8594C4.54026 74.763 4.75687 75.4655 5.19011 75.9668C5.62953 76.4681 6.17727 76.7188 6.83331 76.7188C7.45222 76.7188 8.03399 76.564 8.57863 76.2546C9.30276 75.8461 9.97118 75.2241 10.5839 74.3886C11.2028 73.553 11.7072 72.5535 12.0971 71.39C12.487 70.2202 12.682 69.1278 12.682 68.1128C12.682 67.4073 12.5304 66.7389 12.2271 66.1076C12.0662 65.7857 11.9764 65.5939 11.9579 65.532C11.9331 65.4453 11.9207 65.3525 11.9207 65.2535C11.9207 65.0678 11.9764 64.9162 12.0878 64.7986C12.2054 64.681 12.3478 64.6222 12.5149 64.6222C12.8058 64.6222 13.0348 64.7769 13.2019 65.0864C13.4433 65.5072 13.5639 66.1602 13.5639 67.0452C13.5639 68.9391 13.1493 70.8237 12.3199 72.6989C11.4906 74.5742 10.5313 75.9142 9.44201 76.7188C8.35892 77.5233 7.22013 77.9256 6.02564 77.9256C5.05395 77.9256 4.30816 77.6038 3.78828 76.9601C3.2684 76.3103 3.00846 75.5119 3.00846 74.565C3.00846 73.7851 3.12914 72.9867 3.37052 72.1698C3.68616 71.0991 4.33911 69.4992 5.32936 67.3701C4.55573 67.3516 3.86255 67.4475 3.24983 67.6579C2.63711 67.8622 2.19459 68.1252 1.92227 68.447C1.65614 68.7689 1.52308 69.0876 1.52308 69.4033C1.52308 69.5332 1.59425 69.7096 1.7366 69.9324C1.88514 70.1862 1.95941 70.3842 1.95941 70.5266C1.95941 70.7061 1.90371 70.8546 1.7923 70.9722C1.6809 71.0898 1.54164 71.1486 1.37454 71.1486C1.1703 71.1486 0.990815 71.0557 0.836088 70.8701C0.68755 70.6844 0.613281 70.443 0.613281 70.1459C0.613281 69.6694 0.752536 69.1928 1.03104 68.7163C1.30955 68.2335 1.66852 67.8467 2.10795 67.5558C2.55356 67.2649 3.10129 67.0514 3.75115 66.9152C4.07298 66.8472 4.7414 66.7853 5.75641 66.7296C6.44959 66.6924 6.87354 66.6584 7.02827 66.6275Z" fill="#264C86"/>
<path d="M14.3809 72.0862L14.0653 71.7613C14.8575 71.0062 15.4887 70.5049 15.9591 70.2574C16.4295 70.0098 16.8318 69.886 17.166 69.886C17.296 69.886 17.3981 69.9139 17.4723 69.9696C17.5466 70.0253 17.5837 70.0902 17.5837 70.1645C17.5837 70.2202 17.5683 70.3192 17.5373 70.4616L17.1196 72.3276C17.7509 71.6282 18.5431 70.9753 19.4962 70.3688C20.0037 70.0531 20.4214 69.8953 20.7495 69.8953C20.9908 69.8953 21.1796 69.9727 21.3158 70.1274C21.4519 70.2821 21.52 70.5049 21.52 70.7958C21.52 70.9877 21.4922 71.2043 21.4365 71.4457C21.3374 71.8479 21.0775 72.7237 20.6566 74.0729C20.2605 75.3355 20.0625 76.1741 20.0625 76.5888C20.0625 76.7126 20.081 76.8054 20.1182 76.8673C20.1553 76.9292 20.2079 76.9601 20.276 76.9601C20.4555 76.9601 20.7371 76.7868 21.1208 76.4402C21.3931 76.1927 21.6655 75.9637 21.9378 75.7533L22.1699 76.0875C21.6005 76.7188 21.0094 77.2263 20.3967 77.61C20.0068 77.8575 19.6849 77.9813 19.4312 77.9813C19.196 77.9813 19.0134 77.8947 18.8835 77.7214C18.7535 77.5543 18.6885 77.2789 18.6885 76.8951C18.6885 76.3443 19.032 74.9734 19.719 72.7825C19.9294 72.0027 20.0346 71.5478 20.0346 71.4178C20.0346 71.2259 19.9201 71.13 19.6911 71.13C19.4436 71.13 19.1248 71.26 18.7349 71.5199C18.1531 71.9036 17.6673 72.3555 17.2774 72.8753C17.0298 73.2095 16.8225 73.7418 16.6554 74.4721L15.9034 77.7121H14.5202C14.7801 76.7837 15.006 75.8956 15.1979 75.0477L16.0241 71.5199C16.055 71.3776 16.0705 71.2755 16.0705 71.2136C16.0705 71.0465 16.0086 70.9629 15.8848 70.9629C15.7858 70.9629 15.6435 71.0279 15.4578 71.1579C15.0741 71.4116 14.7151 71.7211 14.3809 72.0862Z" fill="#264C86"/>
<path d="M26.8024 65.9219C26.9943 65.9219 27.1521 65.9869 27.2759 66.1169C27.3996 66.2406 27.4615 66.4016 27.4615 66.5996C27.4615 66.8719 27.3656 67.1133 27.1737 67.3237C26.9881 67.528 26.7776 67.6301 26.5424 67.6301C26.3568 67.6301 26.202 67.5651 26.0783 67.4351C25.9545 67.3052 25.8926 67.135 25.8926 66.9245C25.8926 66.646 25.9823 66.4108 26.1618 66.219C26.3413 66.0209 26.5548 65.9219 26.8024 65.9219ZM23.1446 72.0677L22.7362 71.752C23.3551 71.0712 23.9183 70.5885 24.4258 70.3038C24.9395 70.0129 25.3758 69.8674 25.7348 69.8674C25.9328 69.8674 26.0845 69.9108 26.1897 69.9974C26.2949 70.0841 26.3475 70.2017 26.3475 70.3502C26.3475 70.5297 26.1463 71.2909 25.7441 72.634C25.088 74.8311 24.76 76.1556 24.76 76.6074C24.76 76.694 24.7817 76.7683 24.825 76.8302C24.8683 76.8859 24.9147 76.9137 24.9642 76.9137C25.1623 76.9137 25.6698 76.53 26.4867 75.7625L26.8488 76.1153C26.0009 76.9137 25.382 77.4243 24.9921 77.6471C24.6022 77.8699 24.2834 77.9813 24.0359 77.9813C23.8193 77.9813 23.646 77.9132 23.516 77.7771C23.3922 77.6409 23.3303 77.4522 23.3303 77.2108C23.3303 76.4372 23.7945 74.5464 24.7229 71.5385C24.7662 71.3961 24.7878 71.2693 24.7878 71.1579C24.7878 71.0341 24.7321 70.9722 24.6207 70.9722C24.497 70.9722 24.3546 71.0217 24.1937 71.1207C24.039 71.2198 23.6893 71.5354 23.1446 72.0677Z" fill="#264C86"/>
<path d="M27.7308 70.5173H29.9495C30.3147 68.97 30.7325 67.8189 31.2028 67.0638C31.6732 66.3087 32.2859 65.7146 33.041 65.2813C33.7961 64.8419 34.5078 64.6222 35.1762 64.6222C35.5538 64.6222 35.8385 64.6965 36.0303 64.845C36.2222 64.9935 36.3181 65.1699 36.3181 65.3742C36.3181 65.5598 36.2531 65.7146 36.1232 65.8383C35.9932 65.9621 35.823 66.024 35.6126 66.024C35.3959 66.024 34.9875 65.959 34.3871 65.8291C34.09 65.7672 33.8579 65.7362 33.6908 65.7362C33.2824 65.7362 32.9141 65.99 32.5861 66.4975C32.2581 66.9988 31.995 67.6796 31.797 68.5399L31.3328 70.5173H33.7837L33.6351 71.1764H31.1564L29.6896 77.0994C29.2378 78.9004 28.5137 80.2651 27.5172 81.1935C26.527 82.1218 25.4501 82.586 24.2865 82.586C23.8966 82.586 23.6026 82.5086 23.4046 82.3539C23.2003 82.2054 23.0982 82.0197 23.0982 81.7969C23.0982 81.605 23.1694 81.4503 23.3117 81.3327C23.4479 81.2213 23.646 81.1656 23.9059 81.1656C24.0359 81.1656 24.2277 81.1811 24.4815 81.212C24.9147 81.2677 25.3294 81.2956 25.7255 81.2956C26.3382 81.2956 26.7838 81.1501 27.0623 80.8593C27.3408 80.5746 27.6194 79.8721 27.8979 78.7519L29.7824 71.1764H27.5636L27.7308 70.5173Z" fill="#264C86"/>
<path d="M37.46 65.9219C37.6519 65.9219 37.8097 65.9869 37.9335 66.1169C38.0572 66.2406 38.1191 66.4016 38.1191 66.5996C38.1191 66.8719 38.0232 67.1133 37.8313 67.3237C37.6457 67.528 37.4352 67.6301 37.2001 67.6301C37.0144 67.6301 36.8597 67.5651 36.7359 67.4351C36.6121 67.3052 36.5502 67.135 36.5502 66.9245C36.5502 66.646 36.6399 66.4108 36.8194 66.219C36.9989 66.0209 37.2124 65.9219 37.46 65.9219ZM33.8022 72.0677L33.3938 71.752C34.0127 71.0712 34.5759 70.5885 35.0834 70.3038C35.5971 70.0129 36.0334 69.8674 36.3924 69.8674C36.5904 69.8674 36.7421 69.9108 36.8473 69.9974C36.9525 70.0841 37.0051 70.2017 37.0051 70.3502C37.0051 70.5297 36.804 71.2909 36.4017 72.634C35.7456 74.8311 35.4176 76.1556 35.4176 76.6074C35.4176 76.694 35.4393 76.7683 35.4826 76.8302C35.5259 76.8859 35.5723 76.9137 35.6218 76.9137C35.8199 76.9137 36.3274 76.53 37.1444 75.7625L37.5064 76.1153C36.6585 76.9137 36.0396 77.4243 35.6497 77.6471C35.2598 77.8699 34.941 77.9813 34.6935 77.9813C34.4769 77.9813 34.3036 77.9132 34.1736 77.7771C34.0498 77.6409 33.9879 77.4522 33.9879 77.2108C33.9879 76.4372 34.4521 74.5464 35.3805 71.5385C35.4238 71.3961 35.4454 71.2693 35.4454 71.1579C35.4454 71.0341 35.3897 70.9722 35.2783 70.9722C35.1546 70.9722 35.0122 71.0217 34.8513 71.1207C34.6966 71.2198 34.3469 71.5354 33.8022 72.0677Z" fill="#264C86"/>
<path d="M42.9373 75.3912L43.2437 75.7997C41.7274 77.2417 40.4277 77.9628 39.3446 77.9628C38.9051 77.9628 38.5678 77.8142 38.3327 77.5171C38.1037 77.2201 37.9892 76.7435 37.9892 76.0875C37.9892 74.763 38.3915 73.4447 39.196 72.1326C40.0996 70.6411 41.1796 69.8953 42.436 69.8953C42.8754 69.8953 43.2097 70.0067 43.4386 70.2295C43.6738 70.4461 43.7914 70.7463 43.7914 71.13C43.7914 71.5323 43.6522 71.9284 43.3737 72.3183C43.0952 72.7082 42.5969 73.1136 41.879 73.5345C41.52 73.7387 40.7526 74.107 39.5767 74.6392C39.521 74.9734 39.4931 75.2922 39.4931 75.5954C39.4931 76.0349 39.5612 76.3412 39.6973 76.5145C39.8397 76.6878 40.0439 76.7745 40.3101 76.7745C40.5638 76.7745 40.8423 76.7033 41.1456 76.5609C41.5541 76.3691 42.1513 75.9792 42.9373 75.3912ZM39.6881 74.0451C40.6845 73.5995 41.4334 73.1198 41.9347 72.6061C42.2751 72.2471 42.4453 71.8913 42.4453 71.5385C42.4453 71.2724 42.3741 71.0619 42.2318 70.9072C42.0956 70.7463 41.9161 70.6658 41.6933 70.6658C41.4643 70.6658 41.2415 70.7525 41.0249 70.9258C40.734 71.1548 40.4896 71.5014 40.2915 71.9655C40.0068 72.6463 39.8057 73.3395 39.6881 74.0451Z" fill="#264C86"/>
<path d="M51.6825 75.7997L51.9425 76.1525C51.1131 76.8518 50.4973 77.316 50.095 77.545C49.538 77.8606 49.0986 78.0185 48.7767 78.0185C48.6282 78.0185 48.5075 77.9751 48.4147 77.8885C48.3218 77.808 48.2754 77.7152 48.2754 77.61C48.2754 77.5048 48.3095 77.3315 48.3775 77.0901L48.7025 75.9575C47.9598 76.7559 47.3409 77.2974 46.8457 77.5821C46.3506 77.8668 45.905 78.0092 45.5089 78.0092C45.1809 78.0092 44.9055 77.8668 44.6827 77.5821C44.4599 77.2912 44.3484 76.8673 44.3484 76.3103C44.3484 75.4314 44.6486 74.4226 45.249 73.2838C45.8555 72.1388 46.527 71.294 47.2635 70.7494C48.0062 70.1986 48.6839 69.9231 49.2966 69.9231C49.4328 69.9231 49.637 69.9448 49.9093 69.9881C50.2002 68.7813 50.4787 67.9024 50.7449 67.3516C51.011 66.7946 51.3545 66.3149 51.7753 65.9126C52.1962 65.5103 52.6759 65.2009 53.2143 64.9843C53.7589 64.7614 54.2665 64.65 54.7368 64.65C54.9844 64.65 55.1824 64.715 55.331 64.845C55.4795 64.975 55.5538 65.139 55.5538 65.337C55.5538 65.5289 55.4857 65.6867 55.3495 65.8105C55.2134 65.9281 55.0277 65.9869 54.7925 65.9869C54.6378 65.9869 54.35 65.9559 53.9291 65.894C53.5083 65.8322 53.2205 65.8012 53.0658 65.8012C52.8492 65.8012 52.6573 65.8693 52.4902 66.0055C52.3293 66.1354 52.1745 66.4201 52.026 66.8595C51.927 67.1381 51.7011 68.0262 51.3483 69.5239L50.03 75.1313C49.8753 75.7935 49.7979 76.2329 49.7979 76.4495C49.7979 76.6847 49.8877 76.8023 50.0672 76.8023C50.1786 76.8023 50.3085 76.7621 50.4571 76.6816C50.6675 76.564 51.076 76.27 51.6825 75.7997ZM49.7144 71.0093C49.2193 70.8979 48.8696 70.8422 48.6653 70.8422C48.2507 70.8422 47.8453 71.0062 47.4492 71.3343C47.0531 71.6561 46.6693 72.2843 46.298 73.2188C45.9328 74.1534 45.7503 74.9672 45.7503 75.6604C45.7503 75.9761 45.8338 76.236 46.0009 76.4402C46.1742 76.6383 46.3692 76.7373 46.5858 76.7373C46.8457 76.7373 47.1428 76.6228 47.477 76.3938C47.9536 76.0534 48.3311 75.6388 48.6096 75.1498C48.7767 74.8404 49.0026 74.0822 49.2873 72.8753L49.7144 71.0093Z" fill="#264C86"/>
<path d="M61.2911 68.837L61.4025 68.4192C62.2999 68.3325 63.0673 68.2088 63.7048 68.0479C63.5501 68.4811 63.383 69.0474 63.2035 69.7468L62.5165 72.3555L63.3706 72.4112C63.7667 72.4297 64.1968 72.3307 64.661 72.1141C65.1314 71.8975 65.5492 71.5168 65.9143 70.9722C66.2857 70.4276 66.4713 69.8396 66.4713 69.2083C66.4713 68.5832 66.2454 68.0881 65.7936 67.7229C65.348 67.3578 64.6641 67.1752 63.7419 67.1752C62.6898 67.1752 61.6593 67.4382 60.6505 67.9643C59.6417 68.4842 58.8618 69.1526 58.311 69.9696C57.7664 70.7803 57.4941 71.5818 57.4941 72.374C57.4941 72.7639 57.5652 73.1043 57.7076 73.3952C57.8499 73.6799 58.1037 73.9615 58.4688 74.24C58.7721 74.4628 58.9237 74.6795 58.9237 74.8899C58.9237 75.026 58.8742 75.1405 58.7752 75.2334C58.6762 75.3262 58.5586 75.3726 58.4224 75.3726C58.0573 75.3726 57.7045 75.122 57.3641 74.6207C57.0237 74.1193 56.8535 73.485 56.8535 72.7175C56.8535 71.3126 57.3919 70.0315 58.4688 68.8741C59.88 67.3516 61.7738 66.5903 64.1504 66.5903C65.054 66.5903 65.7936 66.7079 66.3692 66.9431C66.951 67.1783 67.3842 67.5001 67.6689 67.9086C67.9598 68.3171 68.1052 68.7596 68.1052 69.2362C68.1052 69.8427 67.901 70.4399 67.4925 71.0279C67.0902 71.6097 66.493 72.08 65.7008 72.439C64.9148 72.798 64.039 72.9775 63.0735 72.9775C62.925 72.9775 62.6929 72.9682 62.3772 72.9496L61.6438 75.8368C61.5201 76.3257 61.3808 76.8085 61.2261 77.2851C61.7088 77.4026 62.1297 77.4614 62.4887 77.4614C62.9405 77.4614 63.4263 77.3748 63.9462 77.2015L63.8348 77.7214C63.352 77.8514 62.9436 77.9163 62.6093 77.9163C62.2875 77.9163 61.8171 77.8823 61.1982 77.8142C60.7031 77.7523 60.3008 77.7214 59.9914 77.7214C59.391 77.7214 58.7752 77.7926 58.1439 77.9349L58.2553 77.4429C58.899 77.3377 59.3384 77.186 59.5736 76.988C59.9078 76.7095 60.1801 76.1494 60.3906 75.3076L61.7924 69.7468C61.8543 69.4868 61.8852 69.3042 61.8852 69.199C61.8852 69.1 61.845 69.0133 61.7645 68.9391C61.6841 68.8586 61.5881 68.8184 61.4767 68.8184C61.4334 68.8184 61.3715 68.8246 61.2911 68.837Z" fill="#264C86"/>
<path d="M71.2153 75.484L71.5309 75.8182C71.0482 76.3629 70.4757 76.8611 69.8134 77.3129C69.1574 77.7585 68.6158 77.9813 68.1888 77.9813C67.9969 77.9813 67.8391 77.9071 67.7153 77.7585C67.5916 77.6162 67.5297 77.4181 67.5297 77.1644C67.5297 76.6692 67.7215 75.6419 68.1052 74.0822L69.1079 70.0067C69.473 68.5337 69.7794 67.5465 70.027 67.0452C70.4107 66.284 70.9522 65.6929 71.6516 65.272C72.3571 64.8512 73.0998 64.6408 73.8797 64.6408C74.1458 64.6408 74.3531 64.7057 74.5017 64.8357C74.6564 64.9595 74.7338 65.1111 74.7338 65.2906C74.7338 65.4887 74.6595 65.6527 74.5109 65.7826C74.3624 65.9064 74.1458 65.9683 73.8611 65.9683C73.6754 65.9683 73.4124 65.9374 73.072 65.8755C72.7749 65.826 72.4995 65.8012 72.2457 65.8012C71.992 65.8012 71.8001 65.8538 71.6702 65.959C71.4907 66.1076 71.3267 66.4201 71.1781 66.8967C71.0358 67.3732 70.8006 68.314 70.4726 69.7189L69.5535 73.6087C69.0955 75.5583 68.8665 76.5764 68.8665 76.6631C68.8665 76.8611 68.9377 76.9601 69.08 76.9601C69.2162 76.9601 69.4142 76.8797 69.6742 76.7188C70.1879 76.3969 70.7016 75.9853 71.2153 75.484Z" fill="#264C86"/>
<path d="M78.2523 69.756L78.865 69.6261L78.1687 71.9748C77.8902 72.9094 77.6272 73.9863 77.3796 75.2055C77.2434 75.8678 77.1753 76.2948 77.1753 76.4867C77.1753 76.6785 77.2527 76.7745 77.4074 76.7745C77.5065 76.7745 77.6643 76.7095 77.8809 76.5795C78.2646 76.3505 78.6329 76.0658 78.9857 75.7254L79.2827 76.0875C78.5772 76.7311 78.1254 77.121 77.9273 77.2572C77.5312 77.5295 77.1537 77.7307 76.7947 77.8606C76.5595 77.9473 76.3305 77.9906 76.1077 77.9906C75.9468 77.9906 75.8261 77.9535 75.7457 77.8792C75.6652 77.8049 75.625 77.6966 75.625 77.5543C75.625 77.4614 75.6497 77.3346 75.6992 77.1737L76.0706 75.9111C75.5383 76.5486 74.904 77.0963 74.1674 77.5543C73.7157 77.839 73.301 77.9813 72.9234 77.9813C72.5645 77.9813 72.2891 77.8545 72.0972 77.6007C71.8373 77.2603 71.7073 76.8147 71.7073 76.2639C71.7073 75.6078 71.8806 74.8775 72.2272 74.0729C72.58 73.2683 73.0503 72.538 73.6383 71.882C74.2262 71.2259 74.8452 70.7432 75.495 70.4337C75.9963 70.1986 76.64 70.081 77.426 70.081C77.6241 70.081 77.8252 70.0933 78.0294 70.1181L78.2523 69.756ZM77.1011 71.1764C76.7669 71.1084 76.4853 71.0743 76.2563 71.0743C75.6992 71.0743 75.2134 71.229 74.7987 71.5385C74.3841 71.8418 73.9973 72.3926 73.6383 73.191C73.2855 73.9832 73.1091 74.7754 73.1091 75.5676C73.1091 75.9884 73.1803 76.2917 73.3226 76.4774C73.465 76.6631 73.6507 76.7559 73.8797 76.7559C74.3067 76.7559 74.7647 76.5269 75.2536 76.0689C75.7426 75.6047 76.1015 74.9394 76.3305 74.0729L77.1011 71.1764Z" fill="#264C86"/>
<path d="M80.1832 72.0862L79.8676 71.7613C80.6598 71.0062 81.2911 70.5049 81.7615 70.2574C82.2318 70.0098 82.6341 69.886 82.9683 69.886C83.0983 69.886 83.2004 69.9139 83.2747 69.9696C83.349 70.0253 83.3861 70.0902 83.3861 70.1645C83.3861 70.2202 83.3706 70.3192 83.3397 70.4616L82.9219 72.3276C83.5532 71.6282 84.3454 70.9753 85.2985 70.3688C85.806 70.0531 86.2238 69.8953 86.5518 69.8953C86.7932 69.8953 86.9819 69.9727 87.1181 70.1274C87.2543 70.2821 87.3223 70.5049 87.3223 70.7958C87.3223 70.9877 87.2945 71.2043 87.2388 71.4457C87.1398 71.8479 86.8798 72.7237 86.459 74.0729C86.0629 75.3355 85.8648 76.1741 85.8648 76.5888C85.8648 76.7126 85.8834 76.8054 85.9205 76.8673C85.9577 76.9292 86.0103 76.9601 86.0783 76.9601C86.2578 76.9601 86.5394 76.7868 86.9232 76.4402C87.1955 76.1927 87.4678 75.9637 87.7401 75.7533L87.9722 76.0875C87.4028 76.7188 86.8118 77.2263 86.199 77.61C85.8091 77.8575 85.4873 77.9813 85.2335 77.9813C84.9984 77.9813 84.8158 77.8947 84.6858 77.7214C84.5558 77.5543 84.4908 77.2789 84.4908 76.8951C84.4908 76.3443 84.8343 74.9734 85.5213 72.7825C85.7318 72.0027 85.837 71.5478 85.837 71.4178C85.837 71.2259 85.7225 71.13 85.4935 71.13C85.2459 71.13 84.9272 71.26 84.5373 71.5199C83.9555 71.9036 83.4696 72.3555 83.0797 72.8753C82.8322 73.2095 82.6248 73.7418 82.4577 74.4721L81.7058 77.7121H80.3225C80.5824 76.7837 80.8083 75.8956 81.0002 75.0477L81.8264 71.5199C81.8574 71.3776 81.8729 71.2755 81.8729 71.2136C81.8729 71.0465 81.811 70.9629 81.6872 70.9629C81.5882 70.9629 81.4458 71.0279 81.2601 71.1579C80.8764 71.4116 80.5175 71.7211 80.1832 72.0862Z" fill="#264C86"/>
<path d="M88.9284 72.0862L88.6128 71.7613C89.405 71.0062 90.0363 70.5049 90.5066 70.2574C90.977 70.0098 91.3793 69.886 91.7135 69.886C91.8435 69.886 91.9456 69.9139 92.0199 69.9696C92.0941 70.0253 92.1313 70.0902 92.1313 70.1645C92.1313 70.2202 92.1158 70.3192 92.0849 70.4616L91.6671 72.3276C92.2984 71.6282 93.0906 70.9753 94.0437 70.3688C94.5512 70.0531 94.969 69.8953 95.297 69.8953C95.5384 69.8953 95.7271 69.9727 95.8633 70.1274C95.9995 70.2821 96.0675 70.5049 96.0675 70.7958C96.0675 70.9877 96.0397 71.2043 95.984 71.4457C95.8849 71.8479 95.625 72.7237 95.2041 74.0729C94.8081 75.3355 94.61 76.1741 94.61 76.5888C94.61 76.7126 94.6286 76.8054 94.6657 76.8673C94.7028 76.9292 94.7554 76.9601 94.8235 76.9601C95.003 76.9601 95.2846 76.7868 95.6683 76.4402C95.9407 76.1927 96.213 75.9637 96.4853 75.7533L96.7174 76.0875C96.148 76.7188 95.5569 77.2263 94.9442 77.61C94.5543 77.8575 94.2325 77.9813 93.9787 77.9813C93.7435 77.9813 93.561 77.8947 93.431 77.7214C93.301 77.5543 93.236 77.2789 93.236 76.8951C93.236 76.3443 93.5795 74.9734 94.2665 72.7825C94.4769 72.0027 94.5821 71.5478 94.5821 71.4178C94.5821 71.2259 94.4677 71.13 94.2387 71.13C93.9911 71.13 93.6723 71.26 93.2824 71.5199C92.7007 71.9036 92.2148 72.3555 91.8249 72.8753C91.5773 73.2095 91.37 73.7418 91.2029 74.4721L90.4509 77.7121H89.0677C89.3276 76.7837 89.5535 75.8956 89.7454 75.0477L90.5716 71.5199C90.6026 71.3776 90.618 71.2755 90.618 71.2136C90.618 71.0465 90.5561 70.9629 90.4324 70.9629C90.3333 70.9629 90.191 71.0279 90.0053 71.1579C89.6216 71.4116 89.2626 71.7211 88.9284 72.0862Z" fill="#264C86"/>
<path d="M102.26 75.3912L102.566 75.7997C101.05 77.2417 99.75 77.9628 98.6669 77.9628C98.2275 77.9628 97.8902 77.8142 97.655 77.5171C97.426 77.2201 97.3115 76.7435 97.3115 76.0875C97.3115 74.763 97.7138 73.4447 98.5184 72.1326C99.422 70.6411 100.502 69.8953 101.758 69.8953C102.198 69.8953 102.532 70.0067 102.761 70.2295C102.996 70.4461 103.114 70.7463 103.114 71.13C103.114 71.5323 102.975 71.9284 102.696 72.3183C102.418 72.7082 101.919 73.1136 101.201 73.5345C100.842 73.7387 100.075 74.107 98.899 74.6392C98.8433 74.9734 98.8155 75.2922 98.8155 75.5954C98.8155 76.0349 98.8836 76.3412 99.0197 76.5145C99.1621 76.6878 99.3663 76.7745 99.6324 76.7745C99.8862 76.7745 100.165 76.7033 100.468 76.5609C100.876 76.3691 101.474 75.9792 102.26 75.3912ZM99.0104 74.0451C100.007 73.5995 100.756 73.1198 101.257 72.6061C101.597 72.2471 101.768 71.8913 101.768 71.5385C101.768 71.2724 101.697 71.0619 101.554 70.9072C101.418 70.7463 101.239 70.6658 101.016 70.6658C100.787 70.6658 100.564 70.7525 100.347 70.9258C100.056 71.1548 99.8119 71.5014 99.6139 71.9655C99.3292 72.6463 99.128 73.3395 99.0104 74.0451Z" fill="#264C86"/>
<path d="M105.574 77.7214H104.191L104.841 75.2241C105.156 73.9987 105.432 72.8351 105.667 71.7334C105.722 71.4611 105.75 71.2909 105.75 71.2229C105.75 71.0743 105.682 71 105.546 71C105.453 71 105.311 71.065 105.119 71.195C104.927 71.3188 104.581 71.6313 104.079 72.1326L103.792 71.8077C104.386 71.1702 104.977 70.6937 105.565 70.378C106.159 70.0562 106.614 69.8953 106.929 69.8953C107.041 69.8953 107.127 69.9231 107.189 69.9788C107.257 70.0284 107.291 70.0933 107.291 70.1738C107.291 70.2543 107.251 70.4678 107.171 70.8144L106.772 72.4761C107.397 71.4921 108.102 70.6504 108.888 69.951C109.266 69.6168 109.581 69.4497 109.835 69.4497C110.021 69.4497 110.176 69.5116 110.299 69.6354C110.423 69.7529 110.485 69.8922 110.485 70.0531C110.485 70.2202 110.423 70.3626 110.299 70.4802C110.182 70.5978 109.882 70.737 109.399 70.8979C108.941 71.0527 108.566 71.2383 108.275 71.4549C107.991 71.6716 107.675 72.0027 107.329 72.4483C106.988 72.8939 106.75 73.2838 106.614 73.618C106.478 73.946 106.27 74.7135 105.992 75.9204L105.574 77.7214Z" fill="#264C86"/>
<path fill-rule="evenodd" clip-rule="evenodd" d="M31.9752 18.7482L29.1452 19.4672L21.8122 21.0211L20.6419 21.2823C20.5887 21.3011 20.5143 21.3334 20.4691 21.3496C20.4265 21.3658 20.352 21.39 20.2988 21.4223L22.1234 21.5327C36.9862 21.9043 46.8911 17.8676 55.4688 10.8041C54.4182 12.0186 52.6149 13.8067 51.2744 14.9323C47.9603 17.7088 45.4735 19.9735 41.029 21.9474C38.4517 23.0919 37.0314 23.205 34.369 23.9133C37.2282 25.2948 47.1252 24.538 51.1707 23.3181C53.1123 22.7311 53.1841 23.065 53.623 21.1342L56.5939 9.89654C57.2349 10.866 59.0728 18.6136 59.5675 20.6818C60.0915 22.8657 59.6925 22.521 61.7246 23.1754C67.8341 25.1386 72.1934 24.573 78.5902 24.1045L79.0131 23.9833C73.1031 22.5964 70.9753 21.5947 66.6345 18.6324C64.4003 17.1082 58.1366 11.7601 57.2269 10.1174L64.3471 14.3722C70.5045 17.8003 84.2022 22.8119 90.8011 21.6539C89.442 20.6414 77.6646 17.8407 76.2868 16.9063L72.095 15.4521C70.8689 15.1343 69.6879 14.6226 68.5602 14.1406C64.121 12.2502 61.1102 9.50607 57.4158 7.63178C57.4716 6.45228 57.32 3.78358 57.9531 3.02686C58.9079 2.16243 63.6104 2.55829 64.9988 1.80965L56.7562 0L56.5274 7.38403C54.5619 9.37142 48.3992 12.4791 45.1011 13.9844C41.0024 15.856 36.526 17.4772 31.9752 18.7482Z" fill="#264C86"/>
<path fill-rule="evenodd" clip-rule="evenodd" d="M45.6683 41.2882C43.8862 41.5521 44.2054 41.8672 44.0777 42.1634C44.7959 42.1661 47.836 42.8016 49.2643 42.8986C55.145 43.289 61.4061 43.1625 67.0927 42.2038C66.1218 45.1822 65.9516 45.2737 64.0472 46.3186C62.6402 47.0915 61.7279 49.0061 61.6854 51.2574C63.2732 51.5537 64.8319 50.8239 66.457 51.0743C66.324 52.507 65.0074 52.5177 63.4993 52.4019C57.1717 51.9172 58.9777 48.139 58.5894 44.1454C57.2861 46.1274 55.395 51.174 51.3256 51.4594C49.1073 51.6156 47.6019 50.148 46.7827 48.7045C45.788 46.9541 45.4635 45.263 45.0432 43.0601L44.0299 43.2298C43.9261 46.4263 43.7905 49.5636 43.6602 52.7655C45.3385 52.1623 45.5911 51.3355 48.2083 51.6883C52.3177 52.2377 51.1128 54.761 57.2196 52.779C62.1322 51.1847 61.9753 55.8462 67.2496 52.375L67.199 41.9372C67.1299 41.8968 67.0634 41.7837 67.0421 41.8268C67.0182 41.8672 66.9437 41.7406 66.9118 41.7218C66.8001 41.6517 66.8613 41.6329 66.4756 41.4848C63.7679 40.4561 50.7192 40.413 45.6656 41.2963L45.6683 41.2882Z" fill="#264C86"/>
<path fill-rule="evenodd" clip-rule="evenodd" d="M25.1235 26.0974C25.6421 27.9609 24.2245 37.747 23.8494 40.211C22.9185 46.3725 22.2217 47.8105 21.0859 53.059C23.3095 52.4774 24.7165 51.5887 27.3231 52.4962C28.911 53.0483 31.0441 54.8418 31.3367 56.0078C31.5734 55.6766 31.4297 56.0778 31.4856 55.6039C31.5042 55.4477 31.4829 55.2996 31.4563 55.1326L30.8153 52.5609C30.0094 49.2324 29.2195 44.7837 28.8498 41.4229C28.3098 36.5217 28.1689 30.1529 30.044 25.9035C34.5975 26.9564 37.9063 28.2356 43.1859 27.9582C47.4256 27.7347 52.0642 26.4528 54.5138 24.1127C52.7876 24.5085 50.9019 25.4861 48.7687 25.9735C40.5767 27.8478 36.4328 26.2859 29.3126 24.5112C28.1183 29.854 27.0997 30.4815 27.222 37.7093C27.3444 44.9964 28.5599 47.0726 28.879 51.2171C26.6475 50.4657 25.7059 49.8706 23.1127 50.5977C23.9106 46.5906 24.6713 43.4614 25.0277 39.0612C25.2032 36.888 25.9746 27.3119 25.1208 26.0974H25.1235Z" fill="#264C86"/>
<path fill-rule="evenodd" clip-rule="evenodd" d="M70.8469 27.9258C74.9483 27.6673 77.3926 26.5578 80.8955 25.9411C82.9754 29.0272 82.5126 36.8664 82.236 40.8896C81.8211 43.4506 81.5498 45.9389 81.0604 48.4837C80.587 50.9477 79.7917 53.5707 79.4167 55.9647C80.7678 54.594 81.2785 53.3929 83.5925 52.5312C86.0368 51.621 87.7338 52.3804 89.9254 53.0859C88.9759 48.683 87.8375 44.8698 87.1406 40.0925C86.4651 35.4634 85.9836 30.4949 85.6193 25.8711C85.316 33.4167 85.9065 43.7199 87.9173 50.5546C84.8985 50.2449 84.9916 50.0941 82.1642 51.1982C82.1882 49.6767 82.9861 46.534 83.2334 44.7297C83.5446 42.4596 83.7521 40.0575 83.7787 37.7066C83.8425 32.046 83.0739 29.4796 81.6855 24.565C80.2917 24.7401 79.5071 25.2275 78.2943 25.5426C77.8554 25.6584 77.3953 25.7661 76.9564 25.8657C75.9962 26.0839 74.9749 26.2804 73.9615 26.4285C69.6979 27.0506 65.4423 26.854 61.2957 25.7392C59.4844 25.2517 57.6971 24.355 56.2422 23.9968C61.2718 27.091 64.5566 28.3217 70.8469 27.9231V27.9258Z" fill="#264C86"/>
<path fill-rule="evenodd" clip-rule="evenodd" d="M50.2338 50.3985C48.8667 49.1005 47.1059 46.456 47.3134 43.3807L45.8691 43.2649C46.058 46.1733 48.0501 50.0349 50.2312 50.3985H50.2338Z" fill="#264C86"/>
<path fill-rule="evenodd" clip-rule="evenodd" d="M35.9544 51.0878L39.9068 50.5762L39.9308 52.8894L40.8271 52.8948C40.9016 52.2916 40.8165 51.3221 40.9229 50.8805C41.141 49.973 41.4788 50.4738 41.6224 49.3886C41.7421 48.4784 41.79 46.9757 41.5772 45.974C41.4282 45.2765 41.4442 45.2765 40.8138 45.2792C39.0876 45.2846 36.0715 45.6077 35.0927 45.0987C34.199 43.5045 36.5423 38.9481 33.1191 37.2273C33.4197 39.8341 33.8133 42.4139 34.1378 44.9829C34.3293 46.5072 34.1724 47.7244 34.2602 49.1732C34.3958 51.411 34.8506 48.5511 34.9597 52.7548C34.9677 53.0995 35.9518 53.6407 35.9518 51.0878H35.9544Z" fill="#264C86"/>
<path fill-rule="evenodd" clip-rule="evenodd" d="M74.9595 51.0878L71.0071 50.5762L70.9831 52.8894L70.0868 52.8948C70.0123 52.2916 70.0974 51.3221 69.991 50.8805C69.7729 49.973 69.4352 50.4738 69.2915 49.3886C69.1718 48.4784 69.124 46.9757 69.3367 45.974C69.4857 45.2765 69.4697 45.2765 70.1001 45.2792C71.8263 45.2846 74.8424 45.6077 75.8212 45.0987C76.7123 43.5045 74.3717 38.9481 77.7948 37.2273C77.4942 39.8341 77.1006 42.4139 76.7761 44.9829C76.5846 46.5072 76.7415 47.7244 76.6537 49.1732C76.5181 51.411 76.0633 48.5511 75.9542 52.7548C75.9462 53.0995 74.9621 53.6407 74.9621 51.0878H74.9595Z" fill="#264C86"/>
</svg>
