<svg width="20" height="20" viewBox="0 0 20 20" fill="none" xmlns="http://www.w3.org/2000/svg">
<path d="M5.35305 3.16937C5.44597 2.49209 5.54484 1.83663 5.62346 1.17813C5.67588 0.738326 5.79143 0.330023 6.21193 0.130112C6.42352 0.0270919 6.65849 -0.0160177 6.89213 0.00531873C8.44073 0.205836 9.98934 0.429373 11.5379 0.65291C12.8519 0.840706 14.1646 1.03517 15.4786 1.22478C16.4619 1.36653 17.4441 1.51011 18.4293 1.64338C19.1237 1.73788 19.5157 2.28067 19.4138 2.98945C19.2208 4.33249 19.0439 5.67795 18.8599 7.02221C18.8158 7.34328 18.7759 7.66495 18.7241 7.98481C18.6734 8.27054 18.5147 8.52474 18.2821 8.69298C18.0494 8.86123 17.7612 8.93016 17.4792 8.88502C17.2237 8.84322 16.967 8.80687 16.6787 8.76386C16.6787 8.95953 16.6787 9.14429 16.6787 9.32906C16.6787 9.99543 16.2374 10.4534 15.5846 10.4764C15.5328 10.4764 15.4803 10.4764 15.4285 10.4764H4.0415C3.20763 10.4764 2.77819 10.0433 2.77819 9.19579C2.77819 7.60861 2.79249 6.02144 2.77164 4.43487C2.76211 3.74184 3.1856 3.12151 4.02899 3.16634C4.45843 3.18815 4.88966 3.16937 5.35305 3.16937ZM3.5251 7.63042H4.03435C5.17258 7.63042 6.13748 8.38948 6.40253 9.51383C6.4472 9.70344 6.52165 9.72949 6.68366 9.72888C8.71869 9.72484 10.7539 9.72484 12.7893 9.72888H13.0038C13.2575 8.44521 14.2903 7.5232 15.7263 7.63284C15.8038 7.6383 15.8818 7.63284 15.9533 7.63284V6.01235C14.4148 6.11291 13.3856 5.47259 12.9972 3.90965C10.8589 3.90965 8.72524 3.90965 6.59611 3.90965C6.46984 3.90965 6.44244 3.96417 6.41742 4.07866C6.30397 4.60591 6.02254 5.08031 5.61683 5.42821C5.21113 5.77611 4.70384 5.97804 4.17373 6.00266C3.96109 6.01356 3.74786 6.00266 3.5251 6.00266V7.63042ZM16.6817 8.02358C16.9944 8.06538 17.2732 8.10536 17.5525 8.13929C17.8503 8.17624 17.9819 8.07144 18.0236 7.77278C18.0903 7.28815 18.1612 6.80351 18.2279 6.31888C18.384 5.17696 18.5424 4.03444 18.6931 2.89131C18.7402 2.53389 18.6336 2.41455 18.2845 2.3667C17.3959 2.24554 16.5078 2.11771 15.6197 1.9905C14.3947 1.81482 13.1693 1.63813 11.9436 1.46043C10.7178 1.28273 9.4924 1.10665 8.26741 0.93218C7.78317 0.863119 7.29893 0.78982 6.81291 0.734693C6.53297 0.702586 6.41683 0.811022 6.37632 1.09029C6.31676 1.478 6.26137 1.8657 6.20836 2.25341C6.16786 2.55025 6.1339 2.84709 6.094 3.17119H10.0429C11.8483 3.17119 13.6536 3.18815 15.4583 3.16392C16.3023 3.15241 16.7091 3.77698 16.6906 4.40821C16.6579 5.52529 16.6817 6.64419 16.6817 7.76248V8.02358ZM13.7882 3.90844C13.8192 4.78623 14.986 5.49561 15.9658 5.23694C15.9658 4.92374 15.9723 4.60752 15.9658 4.2919C15.9592 4.06291 15.8347 3.91389 15.634 3.91147C15.0176 3.90359 14.4029 3.90844 13.7882 3.90844ZM15.9634 8.36525C14.7489 8.29255 13.8269 8.86987 13.7894 9.71919C14.4184 9.71919 15.0467 9.72646 15.6751 9.71495C15.8538 9.71132 15.9521 9.55926 15.9592 9.39025C15.9735 9.05464 15.9634 8.71661 15.9634 8.36525ZM5.70625 3.90783C5.07669 3.90783 4.46201 3.90359 3.84733 3.91086C3.66209 3.91086 3.53105 4.02293 3.52331 4.21375C3.51021 4.55845 3.51974 4.90315 3.51974 5.2436C4.58947 5.43564 5.47754 4.89769 5.70625 3.90783ZM5.7003 9.72343C5.51148 8.76628 4.60793 8.21319 3.52093 8.37979C3.52093 8.72872 3.5108 9.08129 3.52569 9.43265C3.53284 9.61439 3.65911 9.7198 3.8372 9.72101C4.45188 9.72707 5.06656 9.72404 5.7003 9.72404V9.72343Z" fill="white"/>
<path d="M3.71822 12.9802C4.27 12.5924 4.88843 12.3133 5.54141 12.1575C6.40684 11.9582 7.27466 11.9504 8.1115 12.2345C8.588 12.3968 9.03471 12.3659 9.50584 12.286C10.5142 12.1151 11.5238 11.9485 12.5358 11.8013C13.3101 11.6899 13.9652 11.9601 14.5132 12.5162C14.5603 12.564 14.6049 12.6143 14.6585 12.6719C15.3995 12.0812 16.1226 11.4772 16.8742 10.912C17.7045 10.2875 18.614 10.1917 19.5646 10.6146C20.0596 10.8351 20.1448 11.327 19.757 11.705C17.9515 13.4683 16.1448 15.2313 14.3369 16.9942C13.297 18.0125 12.0569 18.3718 10.6441 18.2264C9.77268 18.1373 8.89831 18.0834 8.02335 18.0131C7.53554 17.9738 7.04594 17.9441 6.55932 17.8883C6.0727 17.8326 5.64385 17.9059 5.27636 18.2518C5.18463 18.3384 5.07861 18.4105 4.97855 18.4881C4.73256 18.6765 4.49788 18.8515 4.37936 19.1811C4.26083 19.5106 3.96659 19.6857 3.61994 19.7384C3.0553 19.8251 2.49125 19.9117 1.926 19.9916C1.40663 20.0643 0.853894 19.6572 0.770507 19.1151C0.5948 17.9774 0.438745 16.8355 0.276737 15.6954C0.183225 15.0387 0.0783995 14.3832 0.00811659 13.7241C-0.0603795 13.0832 0.309499 12.6064 0.934302 12.5004C1.46023 12.4114 1.98854 12.332 2.51865 12.2684C3.08091 12.1981 3.47521 12.4568 3.71822 12.9802ZM14.3726 13.6999C14.3636 13.659 14.3524 13.6185 14.3393 13.5787C14.2014 13.22 13.9461 12.9206 13.6165 12.7309C13.2869 12.5413 12.9031 12.4729 12.5298 12.5374C11.5631 12.6894 10.5988 12.8591 9.63211 13.0123C9.15562 13.0874 8.68985 13.2007 8.20263 13.0353C7.85894 12.9178 7.50426 12.8366 7.14422 12.793C5.96013 12.6525 4.89755 12.9863 3.95349 13.715C3.92443 13.7438 3.90195 13.7788 3.88764 13.8174C3.87334 13.8561 3.86755 13.8974 3.8707 13.9386C3.9255 14.4026 3.99518 14.8648 4.0607 15.3277L4.43832 17.9816C4.63667 17.8284 4.81177 17.6933 4.98629 17.5576C5.37537 17.2444 5.86918 17.098 6.36277 17.1493C6.59208 17.1711 6.82199 17.1862 7.0513 17.2038C8.2878 17.2989 9.52669 17.3686 10.7596 17.4964C11.9925 17.6242 13.023 17.2759 13.9063 16.406C15.5931 14.7443 17.2935 13.0959 18.9905 11.4445C19.0556 11.3947 19.1264 11.353 19.2013 11.3203L19.1316 11.2252C18.4443 11.0102 17.8052 11.098 17.2256 11.5645C16.5363 12.1133 15.846 12.6624 15.1547 13.2116C15.0493 13.2952 15.032 13.3649 15.0737 13.4945C15.2458 14.0252 15.029 14.3493 14.4781 14.4353C13.7038 14.5565 12.9295 14.6934 12.1552 14.8218C11.5476 14.9224 10.9413 15.0266 10.332 15.1156C10.0937 15.1495 9.93528 15.0199 9.90788 14.8188C9.8781 14.6001 10.005 14.4335 10.2426 14.3947C10.9812 14.2736 11.7204 14.1524 12.4589 14.0276C13.0938 13.9186 13.7282 13.8095 14.3726 13.6999ZM1.93911 19.2495C2.37927 19.1829 2.8921 19.1084 3.40493 19.0266C3.75098 18.9709 3.83794 18.8322 3.78016 18.4778C3.72239 18.1234 3.67355 17.7623 3.62233 17.4043C3.43054 16.0473 3.23696 14.6902 3.0416 13.3328C3.00408 13.0729 2.83909 12.962 2.58357 13.0002C2.09993 13.0729 1.61569 13.1434 1.13086 13.2116C0.788375 13.2601 0.676397 13.4212 0.731194 13.7732C0.804455 14.2421 0.869975 14.7122 0.93728 15.1817C1.11557 16.4272 1.29425 17.6725 1.47334 18.9176C1.50788 19.1599 1.62939 19.2562 1.93911 19.2495Z" fill="white"/>
<path d="M9.74606 4.23145C11.1398 4.25871 12.2763 5.22859 12.2941 6.85756C12.3096 8.25997 11.1225 9.4243 9.73296 9.42733C8.33624 9.42733 7.1718 8.25028 7.17776 6.83515C7.1855 5.34248 8.28382 4.22782 9.74606 4.23145ZM9.73832 8.67918C10.7818 8.67918 11.5585 7.8759 11.555 6.80122C11.555 5.75199 10.761 4.94871 9.73236 4.94992C8.70373 4.95113 7.92288 5.74836 7.91513 6.80728C7.90739 7.8662 8.6942 8.68099 9.73832 8.67918Z" fill="white"/>
</svg>
