<svg width="18" height="18" viewBox="0 0 18 18" fill="none" xmlns="http://www.w3.org/2000/svg">
<path d="M17.0887 17.9956C16.8994 17.8548 16.6881 17.7359 16.5253 17.5687C14.9317 15.9886 13.3513 14.3997 11.7665 12.8152C11.718 12.7668 11.6872 12.7008 11.6476 12.6392C9.81628 14.0432 7.81327 14.5493 5.60775 14.074C3.77203 13.6779 2.30609 12.6744 1.25396 11.1251C-0.753452 8.18938 -0.278013 4.40422 2.16082 2.03629C4.89019 -0.608922 8.94904 -0.613323 11.6784 1.65337C14.5311 4.0213 15.2266 8.36544 12.6733 11.6004C12.7173 11.6488 12.7614 11.6973 12.8098 11.7457C14.3946 13.3302 15.9838 14.9147 17.5642 16.5079C17.7315 16.6796 17.8547 16.8909 18 17.0845C18 17.1902 18 17.2958 18 17.4014C17.8988 17.7007 17.7006 17.8988 17.4013 18C17.3 17.9956 17.1944 17.9956 17.0887 17.9956ZM12.7526 7.11985C12.7349 4.0081 10.2125 1.49492 7.12212 1.50373C4.01855 1.51693 1.49608 4.04331 1.50929 7.13306C1.5225 10.236 4.01855 12.7536 7.13532 12.7448C10.2873 12.736 12.7349 10.2052 12.7526 7.11985Z" fill="#7C7C7C"/>
</svg>
