<svg width="22" height="22" viewBox="0 0 22 22" fill="none" xmlns="http://www.w3.org/2000/svg">
<path d="M11 13.7273C12.3807 13.7273 13.5 12.5062 13.5 11C13.5 9.49375 12.3807 8.27271 11 8.27271C9.61929 8.27271 8.5 9.49375 8.5 11C8.5 12.5062 9.61929 13.7273 11 13.7273Z" stroke="white"/>
<path d="M17.4669 10.249C17.6005 10.5563 17.6673 10.7099 17.6673 11C17.6673 11.29 17.6005 11.4436 17.4669 11.7509C16.8164 13.2464 14.9594 16.4545 11.0007 16.4545C7.04189 16.4545 5.18497 13.2464 4.53441 11.7509C4.40079 11.4436 4.33398 11.29 4.33398 11C4.33398 10.7099 4.40079 10.5563 4.53441 10.249C5.18497 8.75353 7.04189 5.54541 11.0007 5.54541C14.9594 5.54541 16.8164 8.75353 17.4669 10.249Z" stroke="white"/>
<path d="M16.834 1H17.0423C18.9083 1 19.8413 1 20.421 1.63239C21.0007 2.26476 21.0007 3.28257 21.0007 5.31818V5.54545" stroke="white" stroke-linecap="round"/>
<path d="M16.834 21H17.0423C18.9083 21 19.8413 21 20.421 20.3677C21.0007 19.7353 21.0007 18.7174 21.0007 16.6819V16.4546" stroke="white" stroke-linecap="round"/>
<path d="M5.16667 1H4.95833C3.09235 1 2.15936 1 1.57969 1.63239C1 2.26476 1 3.28257 1 5.31818V5.54545" stroke="white" stroke-linecap="round"/>
<path d="M5.16667 21H4.95833C3.09235 21 2.15936 21 1.57969 20.3677C1 19.7353 1 18.7174 1 16.6819V16.4546" stroke="white" stroke-linecap="round"/>
</svg>
